<?xml version="1.0" encoding="utf-8"?>
<!-- Generator: Adobe Illustrator 24.3.0, SVG Export Plug-In . SVG Version: 6.00 Build 0)  -->
<svg version="1.1" id="圖層_1" xmlns="http://www.w3.org/2000/svg" xmlns:xlink="http://www.w3.org/1999/xlink" x="0px" y="0px"
	 viewBox="0 0 113.39 56.69" style="enable-background:new 0 0 113.39 56.69;" xml:space="preserve">
<style type="text/css">
	.st0{fill:#9C8053;}
	.st1{fill:#172F2F;}
</style>
<rect x="34.83" y="52.66" class="st0" width="72.08" height="2.4"/>
<polygon class="st0" points="3.69,19.43 54.38,5.61 22.13,24.04 26.73,36.33 19.05,24.04 "/>
<polygon class="st1" points="26.6,25.39 65.14,1 52.85,24.04 52.85,11.75 34.41,24.04 51.31,28.65 34.41,54.77 25.2,37.87 
	35.95,45.55 43.63,31.72 "/>
<g>
	<path class="st1" d="M56.59,35.71c-0.76,0-1.46,0.14-2.1,0.44c-0.64,0.29-1.19,0.71-1.65,1.26s-0.82,1.24-1.07,2.05
		c-0.26,0.81-0.39,1.74-0.39,2.79c0,1.04,0.12,1.95,0.35,2.73c0.23,0.79,0.57,1.44,1.01,1.97c0.44,0.53,0.97,0.93,1.61,1.19
		c0.63,0.27,1.35,0.4,2.15,0.4c0.58,0,1.16-0.05,1.76-0.16c0.6-0.11,1.16-0.26,1.68-0.46v2.78c-0.53,0.18-1.1,0.31-1.72,0.42
		c-0.61,0.1-1.25,0.15-1.91,0.15c-1.29,0-2.42-0.21-3.4-0.64c-0.98-0.43-1.79-1.03-2.45-1.81c-0.66-0.78-1.15-1.71-1.48-2.79
		c-0.33-1.09-0.49-2.28-0.49-3.59c0-1.34,0.18-2.59,0.53-3.74c0.35-1.15,0.86-2.15,1.52-2.99c0.66-0.84,1.49-1.51,2.49-1.99
		c1-0.48,2.12-0.73,3.38-0.74c0.64,0,1.25,0.05,1.83,0.15c0.57,0.1,1.09,0.24,1.56,0.43v2.74c-0.61-0.22-1.17-0.37-1.69-0.46
		C57.6,35.75,57.09,35.71,56.59,35.71z"/>
	<path class="st1" d="M71.5,46.45h-5.72l-1.49,4.49h-2.96l6.03-17.63h2.55l6.03,17.63h-2.94L71.5,46.45z M68.61,37.55
		c-0.53,1.84-1.01,3.39-1.42,4.62l-0.52,1.57h3.93l-0.52-1.57c-0.41-1.25-0.89-2.79-1.42-4.62H68.61z"/>
	<path class="st1" d="M89.33,38.61c0,1.23-0.29,2.27-0.88,3.13c-0.59,0.86-1.49,1.49-2.72,1.9v0.05l4.52,7.25h-3.34l-4.13-6.83
		h-1.91v6.83h-2.78V33.31h4.62c0.76,0,1.48,0.05,2.14,0.15c0.66,0.1,1.22,0.25,1.69,0.45c0.89,0.4,1.58,0.98,2.07,1.76
		C89.09,36.45,89.33,37.43,89.33,38.61z M82.24,41.41c0.64,0,1.18-0.03,1.62-0.1c0.44-0.07,0.82-0.16,1.12-0.3
		c0.56-0.25,0.95-0.58,1.17-1.01c0.22-0.43,0.32-0.92,0.32-1.47c0-0.47-0.09-0.89-0.26-1.26c-0.17-0.36-0.46-0.65-0.87-0.86
		c-0.27-0.14-0.6-0.24-1-0.31c-0.4-0.07-0.9-0.1-1.49-0.1h-1.99v5.4H82.24z"/>
	<path class="st1" d="M92.7,50.94V33.31h4.02c0.36,0,0.72,0.01,1.09,0.04c0.37,0.03,0.73,0.07,1.07,0.12s0.69,0.12,1.01,0.19
		c0.33,0.08,0.63,0.17,0.9,0.27c0.81,0.3,1.53,0.7,2.15,1.21c0.62,0.51,1.14,1.11,1.56,1.81c0.42,0.69,0.74,1.47,0.95,2.33
		c0.22,0.86,0.32,1.79,0.32,2.79c0,0.95-0.09,1.84-0.27,2.67c-0.18,0.83-0.46,1.59-0.83,2.27c-0.37,0.69-0.84,1.29-1.4,1.81
		c-0.56,0.52-1.23,0.95-2.01,1.28c-0.64,0.28-1.38,0.49-2.19,0.63c-0.82,0.14-1.74,0.21-2.76,0.21H92.7z M96.63,48.24
		c1.63,0,2.9-0.26,3.82-0.78c0.81-0.47,1.42-1.14,1.84-2.03c0.42-0.89,0.63-2.02,0.63-3.4c0-0.72-0.07-1.37-0.2-1.95
		c-0.14-0.58-0.33-1.1-0.59-1.55c-0.26-0.45-0.57-0.84-0.94-1.17s-0.78-0.59-1.24-0.8c-0.43-0.19-0.91-0.33-1.44-0.42
		c-0.53-0.09-1.13-0.13-1.78-0.13h-1.23v12.23H96.63z"/>
</g>
</svg>
